<svg width="64" height="64" viewBox="0 0 64 64" fill="none" xmlns="http://www.w3.org/2000/svg">
<path d="M19.5328 36.4526L19.5338 36.4521C20.2238 36.0742 20.7695 35.521 21.1704 34.7966H21.2612V38.9448C21.2612 39.174 21.2094 39.322 21.1282 39.4122C21.0493 39.4998 20.9234 39.5541 20.7257 39.5541H13.4758H13.3478V39.6821V41.4516V41.5796H13.4758H21.4138C22.0008 41.5796 22.486 41.3885 22.8571 41.0004C23.2431 40.6137 23.4342 40.1217 23.4342 39.5347V24.3467V24.2187H23.3062H21.3892H21.2612V24.3467V26.1356H21.1719C20.7876 25.4125 20.2589 24.8598 19.5857 24.4817C18.9078 24.0755 18.1148 23.8746 17.2113 23.8746C16.4094 23.8746 15.6401 24.0167 14.9042 24.301C14.1671 24.5858 13.5214 25.0049 12.9682 25.558C12.4139 26.0957 11.9708 26.7658 11.6375 27.5656C11.3021 28.3539 11.1359 29.2478 11.1359 30.2449V30.6382C11.1359 31.6508 11.2936 32.5602 11.6118 33.364L11.6118 33.3641L11.6131 33.3671C11.9467 34.1511 12.3901 34.8129 12.9443 35.3503L12.9457 35.3517C13.5149 35.8874 14.168 36.2976 14.9042 36.5821C15.6407 36.8666 16.4264 37.0085 17.2605 37.0085C18.0832 37.0085 18.8415 36.8235 19.5328 36.4526ZM20.0926 33.7445L20.0926 33.7445L20.0906 33.7465C19.7424 34.1264 19.3313 34.419 18.8562 34.6249C18.3818 34.8305 17.8668 34.9338 17.3096 34.9338C16.7349 34.9338 16.2111 34.8382 15.7368 34.6487C15.2615 34.4426 14.842 34.1577 14.4775 33.7936C14.1298 33.4138 13.8519 32.9618 13.6446 32.436C13.4544 31.9122 13.358 31.3135 13.358 30.6382V30.2449C13.358 29.6031 13.4542 29.0207 13.6446 28.4962C13.8521 27.97 14.1303 27.5177 14.4785 27.1376C14.8433 26.7571 15.2629 26.4644 15.7378 26.2585C16.2292 26.0525 16.7527 25.9493 17.3096 25.9493C17.8485 25.9493 18.3542 26.0601 18.8283 26.2813L18.8283 26.2814L18.833 26.2834C19.3244 26.4894 19.7431 26.782 20.0906 27.1611L20.0906 27.1612L20.0926 27.1632C20.4565 27.543 20.7427 28.0031 20.9502 28.5458L20.9506 28.547C21.1571 29.0709 21.2612 29.6528 21.2612 30.2941V30.589C21.2612 31.2468 21.157 31.8453 20.9504 32.3859C20.7431 32.9119 20.457 33.3642 20.0926 33.7445ZM26.828 37.588H26.7V37.716V39.4855V39.6135H26.828H38.2804H38.4084V39.4855V37.716V37.588H38.2804H26.828ZM42.3378 33.3415V33.521L42.5075 33.4625L52.7803 29.9236L52.8666 29.8939V29.8026V26.067V25.9757L52.7803 25.946L42.5075 22.4071L42.3378 22.3486V22.5281V24.5925V24.6846L42.4252 24.7138L51.8733 27.8794V27.9901L42.4252 31.1558L42.3378 31.185V31.2771V33.3415Z" fill="white" stroke="white" stroke-width="0.256"/>
</svg>
