<svg width="173" height="64" viewBox="0 0 173 64" fill="none" xmlns="http://www.w3.org/2000/svg">
<mask id="path-1-outside-1_3_4879" maskUnits="userSpaceOnUse" x="19.7361" y="19.7358" width="133" height="24" fill="black">
<rect fill="white" x="19.7361" y="19.7358" width="133" height="24"/>
<path d="M22.653 38.2831H20.7361V26.0934H22.653V28.1578H22.9479C23.7016 26.5522 25.0123 25.7493 26.8801 25.7493C28.2891 25.7493 29.4114 26.1917 30.247 27.0764C31.0826 27.9448 31.5004 29.2555 31.5004 31.0086V38.2831H29.5834V31.4018C29.5834 30.1239 29.2967 29.1654 28.7233 28.5264C28.1498 27.8875 27.3716 27.568 26.3886 27.568C25.2253 27.568 24.3078 27.9694 23.6361 28.7722C22.9807 29.5586 22.653 30.6154 22.653 31.9425V38.2831Z"/>
<path d="M45.0492 36.4153H44.7543C44.3611 37.1526 43.8204 37.7097 43.1323 38.0865C42.4606 38.4469 41.7233 38.6272 40.9205 38.6272C40.1013 38.6272 39.3312 38.4879 38.6103 38.2094C37.8894 37.9308 37.2505 37.5294 36.6934 37.0052C36.1527 36.4809 35.7185 35.8337 35.3909 35.0636C35.0796 34.2772 34.9239 33.3843 34.9239 32.3849V31.9916C34.9239 31.0086 35.0878 30.1321 35.4154 29.362C35.7431 28.5756 36.1773 27.9202 36.718 27.3959C37.2586 26.8553 37.8894 26.4457 38.6103 26.1671C39.3312 25.8886 40.0849 25.7493 40.8713 25.7493C41.7561 25.7493 42.5261 25.946 43.1815 26.3392C43.8532 26.716 44.3775 27.2731 44.7543 28.0103H45.0492V26.0934H46.9662V41.2814C46.9662 41.8384 46.7859 42.2972 46.4255 42.6576C46.0814 43.0181 45.6309 43.1983 45.0738 43.1983H37.1358V41.4288H44.3857C44.8281 41.4288 45.0492 41.1831 45.0492 40.6916V36.4153ZM40.9696 36.8085C41.5431 36.8085 42.0755 36.702 42.5671 36.4891C43.0586 36.2761 43.4846 35.973 43.845 35.5797C44.2218 35.1865 44.5168 34.7196 44.7297 34.1789C44.9427 33.6219 45.0492 33.0075 45.0492 32.3357V32.0408C45.0492 31.3854 44.9427 30.7874 44.7297 30.2468C44.5168 29.6897 44.2218 29.2146 43.845 28.8213C43.4846 28.4281 43.0504 28.125 42.5425 27.912C42.051 27.6827 41.5267 27.568 40.9696 27.568C40.3962 27.568 39.8555 27.6745 39.3476 27.8875C38.8561 28.1004 38.4219 28.4036 38.0451 28.7968C37.6846 29.19 37.3979 29.6569 37.1849 30.1976C36.9883 30.7383 36.89 31.3363 36.89 31.9916V32.3849C36.89 33.073 36.9883 33.6874 37.1849 34.2281C37.3979 34.7687 37.6846 35.2357 38.0451 35.6289C38.4219 36.0057 38.8561 36.3006 39.3476 36.5136C39.8391 36.7102 40.3798 36.8085 40.9696 36.8085Z"/>
<path d="M62.3336 32.3357C62.3336 33.3515 62.1616 34.2526 61.8176 35.0391C61.4899 35.8091 61.0475 36.4645 60.4904 37.0052C59.9334 37.5294 59.278 37.9308 58.5244 38.2094C57.7871 38.4879 57.017 38.6272 56.2142 38.6272C55.395 38.6272 54.6168 38.4879 53.8795 38.2094C53.1422 37.9308 52.4951 37.5294 51.938 37.0052C51.3809 36.4645 50.9304 35.8091 50.5863 35.0391C50.2586 34.2526 50.0948 33.3515 50.0948 32.3357V32.0408C50.0948 31.0414 50.2586 30.1566 50.5863 29.3866C50.9304 28.6002 51.3809 27.9366 51.938 27.3959C52.5114 26.8553 53.1668 26.4457 53.9041 26.1671C54.6414 25.8886 55.4114 25.7493 56.2142 25.7493C57.017 25.7493 57.7871 25.8886 58.5244 26.1671C59.2616 26.4457 59.9088 26.8553 60.4659 27.3959C61.0393 27.9366 61.4899 28.6002 61.8176 29.3866C62.1616 30.1566 62.3336 31.0414 62.3336 32.0408V32.3357ZM56.2142 36.8085C56.804 36.8085 57.3447 36.7102 57.8362 36.5136C58.3441 36.3006 58.7865 35.9975 59.1633 35.6043C59.5402 35.2111 59.8351 34.7442 60.0481 34.2035C60.2611 33.6464 60.3676 33.0238 60.3676 32.3357V32.0408C60.3676 31.3854 60.2611 30.7874 60.0481 30.2468C59.8351 29.6897 59.5402 29.2146 59.1633 28.8213C58.7865 28.4281 58.3441 28.125 57.8362 27.912C57.3283 27.6827 56.7877 27.568 56.2142 27.568C55.6408 27.568 55.1001 27.6827 54.5922 27.912C54.0843 28.125 53.6419 28.4281 53.2651 28.8213C52.8883 29.2146 52.5934 29.6897 52.3804 30.2468C52.1674 30.7874 52.0609 31.3854 52.0609 32.0408V32.3357C52.0609 33.0238 52.1674 33.6464 52.3804 34.2035C52.5934 34.7442 52.8883 35.2111 53.2651 35.6043C53.6419 35.9975 54.0761 36.3006 54.5676 36.5136C55.0755 36.7102 55.6244 36.8085 56.2142 36.8085Z"/>
<path d="M75.3173 36.4153H75.0224C74.8257 36.7922 74.5718 37.1198 74.2605 37.3984C73.9656 37.6769 73.6379 37.9063 73.2775 38.0865C72.9334 38.2667 72.5648 38.3978 72.1715 38.4797C71.7783 38.578 71.4015 38.6272 71.041 38.6272C70.2218 38.6272 69.46 38.4879 68.7555 38.2094C68.051 37.9308 67.4284 37.5294 66.8877 37.0052C66.3634 36.4809 65.9456 35.8337 65.6343 35.0636C65.3394 34.2772 65.192 33.3843 65.192 32.3849V31.9916C65.192 31.0086 65.3476 30.1321 65.6589 29.362C65.9702 28.5756 66.388 27.9202 66.9123 27.3959C67.4366 26.8553 68.051 26.4457 68.7555 26.1671C69.46 25.8886 70.2055 25.7493 70.9919 25.7493C71.8275 25.7493 72.6057 25.9378 73.3266 26.3146C74.0639 26.675 74.6291 27.2403 75.0224 28.0103H75.3173V21.0799H77.2342V38.2831H75.3173V36.4153ZM71.2376 36.8085C71.8111 36.8085 72.3436 36.702 72.8351 36.4891C73.3266 36.2761 73.7526 35.973 74.113 35.5797C74.4899 35.1865 74.7848 34.7196 74.9978 34.1789C75.2108 33.6219 75.3173 33.0075 75.3173 32.3357V32.0408C75.3173 31.3854 75.2108 30.7874 74.9978 30.2468C74.7848 29.6897 74.4899 29.2146 74.113 28.8213C73.7526 28.4281 73.3184 28.125 72.8105 27.912C72.319 27.6827 71.7947 27.568 71.2376 27.568C70.6642 27.568 70.1235 27.6745 69.6156 27.8875C69.1241 28.1004 68.6899 28.4036 68.3131 28.7968C67.9527 29.19 67.6659 29.6569 67.4529 30.1976C67.2563 30.7383 67.158 31.3363 67.158 31.9916V32.3849C67.158 33.073 67.2563 33.6874 67.4529 34.2281C67.6659 34.7687 67.9527 35.2357 68.3131 35.6289C68.6899 36.0057 69.1241 36.3006 69.6156 36.5136C70.1072 36.7102 70.6478 36.8085 71.2376 36.8085Z"/>
<path d="M84.7128 22.4562C84.7128 21.981 84.8766 21.5796 85.2043 21.2519C85.5484 20.9079 85.958 20.7358 86.4331 20.7358C86.9082 20.7358 87.3096 20.9079 87.6373 21.2519C87.9814 21.5796 88.1534 21.981 88.1534 22.4562C88.1534 22.9313 87.9814 23.3409 87.6373 23.685C87.3096 24.0126 86.9082 24.1765 86.4331 24.1765C85.958 24.1765 85.5484 24.0126 85.2043 23.685C84.8766 23.3409 84.7128 22.9313 84.7128 22.4562ZM81.223 36.5136H85.4992V27.8629H81.6654V26.0934H87.4162V36.5136H91.3975V38.2831H81.223V36.5136Z"/>
<path d="M97.893 38.2831H95.9761V26.0934H97.893V28.1578H98.1879C98.9416 26.5522 100.252 25.7493 102.12 25.7493C103.529 25.7493 104.651 26.1917 105.487 27.0764C106.323 27.9448 106.74 29.2555 106.74 31.0086V38.2831H104.823V31.4018C104.823 30.1239 104.537 29.1654 103.963 28.5264C103.39 27.8875 102.612 27.568 101.629 27.568C100.465 27.568 99.5478 27.9694 98.876 28.7722C98.2207 29.5586 97.893 30.6154 97.893 31.9425V38.2831Z"/>
<path d="M120.289 36.4153H119.994C119.601 37.1526 119.06 37.7097 118.372 38.0865C117.701 38.4469 116.963 38.6272 116.16 38.6272C115.341 38.6272 114.571 38.4879 113.85 38.2094C113.129 37.9308 112.49 37.5294 111.933 37.0052C111.393 36.4809 110.959 35.8337 110.631 35.0636C110.32 34.2772 110.164 33.3843 110.164 32.3849V31.9916C110.164 31.0086 110.328 30.1321 110.655 29.362C110.983 28.5756 111.417 27.9202 111.958 27.3959C112.499 26.8553 113.129 26.4457 113.85 26.1671C114.571 25.8886 115.325 25.7493 116.111 25.7493C116.996 25.7493 117.766 25.946 118.421 26.3392C119.093 26.716 119.617 27.2731 119.994 28.0103H120.289V26.0934H122.206V41.2814C122.206 41.8384 122.026 42.2972 121.665 42.6576C121.321 43.0181 120.871 43.1983 120.314 43.1983H112.376V41.4288H119.626C120.068 41.4288 120.289 41.1831 120.289 40.6916V36.4153ZM116.21 36.8085C116.783 36.8085 117.316 36.702 117.807 36.4891C118.299 36.2761 118.725 35.973 119.085 35.5797C119.462 35.1865 119.757 34.7196 119.97 34.1789C120.183 33.6219 120.289 33.0075 120.289 32.3357V32.0408C120.289 31.3854 120.183 30.7874 119.97 30.2468C119.757 29.6897 119.462 29.2146 119.085 28.8213C118.725 28.4281 118.29 28.125 117.782 27.912C117.291 27.6827 116.767 27.568 116.21 27.568C115.636 27.568 115.096 27.6745 114.588 27.8875C114.096 28.1004 113.662 28.4036 113.285 28.7968C112.925 29.19 112.638 29.6569 112.425 30.1976C112.228 30.7383 112.13 31.3363 112.13 31.9916V32.3849C112.13 33.073 112.228 33.6874 112.425 34.2281C112.638 34.7687 112.925 35.2357 113.285 35.6289C113.662 36.0057 114.096 36.3006 114.588 36.5136C115.079 36.7102 115.62 36.8085 116.21 36.8085Z"/>
<path d="M125.728 39.4628H137.18V41.2322H125.728V39.4628Z"/>
<path d="M141.366 35.0882V33.0238L150.901 29.829V29.534L141.366 26.3392V24.2748L151.639 27.8137V31.5493L141.366 35.0882Z"/>
</mask>
<path d="M22.653 38.2831H20.7361V26.0934H22.653V28.1578H22.9479C23.7016 26.5522 25.0123 25.7493 26.8801 25.7493C28.2891 25.7493 29.4114 26.1917 30.247 27.0764C31.0826 27.9448 31.5004 29.2555 31.5004 31.0086V38.2831H29.5834V31.4018C29.5834 30.1239 29.2967 29.1654 28.7233 28.5264C28.1498 27.8875 27.3716 27.568 26.3886 27.568C25.2253 27.568 24.3078 27.9694 23.6361 28.7722C22.9807 29.5586 22.653 30.6154 22.653 31.9425V38.2831Z" fill="white"/>
<path d="M45.0492 36.4153H44.7543C44.3611 37.1526 43.8204 37.7097 43.1323 38.0865C42.4606 38.4469 41.7233 38.6272 40.9205 38.6272C40.1013 38.6272 39.3312 38.4879 38.6103 38.2094C37.8894 37.9308 37.2505 37.5294 36.6934 37.0052C36.1527 36.4809 35.7185 35.8337 35.3909 35.0636C35.0796 34.2772 34.9239 33.3843 34.9239 32.3849V31.9916C34.9239 31.0086 35.0878 30.1321 35.4154 29.362C35.7431 28.5756 36.1773 27.9202 36.718 27.3959C37.2586 26.8553 37.8894 26.4457 38.6103 26.1671C39.3312 25.8886 40.0849 25.7493 40.8713 25.7493C41.7561 25.7493 42.5261 25.946 43.1815 26.3392C43.8532 26.716 44.3775 27.2731 44.7543 28.0103H45.0492V26.0934H46.9662V41.2814C46.9662 41.8384 46.7859 42.2972 46.4255 42.6576C46.0814 43.0181 45.6309 43.1983 45.0738 43.1983H37.1358V41.4288H44.3857C44.8281 41.4288 45.0492 41.1831 45.0492 40.6916V36.4153ZM40.9696 36.8085C41.5431 36.8085 42.0755 36.702 42.5671 36.4891C43.0586 36.2761 43.4846 35.973 43.845 35.5797C44.2218 35.1865 44.5168 34.7196 44.7297 34.1789C44.9427 33.6219 45.0492 33.0075 45.0492 32.3357V32.0408C45.0492 31.3854 44.9427 30.7874 44.7297 30.2468C44.5168 29.6897 44.2218 29.2146 43.845 28.8213C43.4846 28.4281 43.0504 28.125 42.5425 27.912C42.051 27.6827 41.5267 27.568 40.9696 27.568C40.3962 27.568 39.8555 27.6745 39.3476 27.8875C38.8561 28.1004 38.4219 28.4036 38.0451 28.7968C37.6846 29.19 37.3979 29.6569 37.1849 30.1976C36.9883 30.7383 36.89 31.3363 36.89 31.9916V32.3849C36.89 33.073 36.9883 33.6874 37.1849 34.2281C37.3979 34.7687 37.6846 35.2357 38.0451 35.6289C38.4219 36.0057 38.8561 36.3006 39.3476 36.5136C39.8391 36.7102 40.3798 36.8085 40.9696 36.8085Z" fill="white"/>
<path d="M62.3336 32.3357C62.3336 33.3515 62.1616 34.2526 61.8176 35.0391C61.4899 35.8091 61.0475 36.4645 60.4904 37.0052C59.9334 37.5294 59.278 37.9308 58.5244 38.2094C57.7871 38.4879 57.017 38.6272 56.2142 38.6272C55.395 38.6272 54.6168 38.4879 53.8795 38.2094C53.1422 37.9308 52.4951 37.5294 51.938 37.0052C51.3809 36.4645 50.9304 35.8091 50.5863 35.0391C50.2586 34.2526 50.0948 33.3515 50.0948 32.3357V32.0408C50.0948 31.0414 50.2586 30.1566 50.5863 29.3866C50.9304 28.6002 51.3809 27.9366 51.938 27.3959C52.5114 26.8553 53.1668 26.4457 53.9041 26.1671C54.6414 25.8886 55.4114 25.7493 56.2142 25.7493C57.017 25.7493 57.7871 25.8886 58.5244 26.1671C59.2616 26.4457 59.9088 26.8553 60.4659 27.3959C61.0393 27.9366 61.4899 28.6002 61.8176 29.3866C62.1616 30.1566 62.3336 31.0414 62.3336 32.0408V32.3357ZM56.2142 36.8085C56.804 36.8085 57.3447 36.7102 57.8362 36.5136C58.3441 36.3006 58.7865 35.9975 59.1633 35.6043C59.5402 35.2111 59.8351 34.7442 60.0481 34.2035C60.2611 33.6464 60.3676 33.0238 60.3676 32.3357V32.0408C60.3676 31.3854 60.2611 30.7874 60.0481 30.2468C59.8351 29.6897 59.5402 29.2146 59.1633 28.8213C58.7865 28.4281 58.3441 28.125 57.8362 27.912C57.3283 27.6827 56.7877 27.568 56.2142 27.568C55.6408 27.568 55.1001 27.6827 54.5922 27.912C54.0843 28.125 53.6419 28.4281 53.2651 28.8213C52.8883 29.2146 52.5934 29.6897 52.3804 30.2468C52.1674 30.7874 52.0609 31.3854 52.0609 32.0408V32.3357C52.0609 33.0238 52.1674 33.6464 52.3804 34.2035C52.5934 34.7442 52.8883 35.2111 53.2651 35.6043C53.6419 35.9975 54.0761 36.3006 54.5676 36.5136C55.0755 36.7102 55.6244 36.8085 56.2142 36.8085Z" fill="white"/>
<path d="M75.3173 36.4153H75.0224C74.8257 36.7922 74.5718 37.1198 74.2605 37.3984C73.9656 37.6769 73.6379 37.9063 73.2775 38.0865C72.9334 38.2667 72.5648 38.3978 72.1715 38.4797C71.7783 38.578 71.4015 38.6272 71.041 38.6272C70.2218 38.6272 69.46 38.4879 68.7555 38.2094C68.051 37.9308 67.4284 37.5294 66.8877 37.0052C66.3634 36.4809 65.9456 35.8337 65.6343 35.0636C65.3394 34.2772 65.192 33.3843 65.192 32.3849V31.9916C65.192 31.0086 65.3476 30.1321 65.6589 29.362C65.9702 28.5756 66.388 27.9202 66.9123 27.3959C67.4366 26.8553 68.051 26.4457 68.7555 26.1671C69.46 25.8886 70.2055 25.7493 70.9919 25.7493C71.8275 25.7493 72.6057 25.9378 73.3266 26.3146C74.0639 26.675 74.6291 27.2403 75.0224 28.0103H75.3173V21.0799H77.2342V38.2831H75.3173V36.4153ZM71.2376 36.8085C71.8111 36.8085 72.3436 36.702 72.8351 36.4891C73.3266 36.2761 73.7526 35.973 74.113 35.5797C74.4899 35.1865 74.7848 34.7196 74.9978 34.1789C75.2108 33.6219 75.3173 33.0075 75.3173 32.3357V32.0408C75.3173 31.3854 75.2108 30.7874 74.9978 30.2468C74.7848 29.6897 74.4899 29.2146 74.113 28.8213C73.7526 28.4281 73.3184 28.125 72.8105 27.912C72.319 27.6827 71.7947 27.568 71.2376 27.568C70.6642 27.568 70.1235 27.6745 69.6156 27.8875C69.1241 28.1004 68.6899 28.4036 68.3131 28.7968C67.9527 29.19 67.6659 29.6569 67.4529 30.1976C67.2563 30.7383 67.158 31.3363 67.158 31.9916V32.3849C67.158 33.073 67.2563 33.6874 67.4529 34.2281C67.6659 34.7687 67.9527 35.2357 68.3131 35.6289C68.6899 36.0057 69.1241 36.3006 69.6156 36.5136C70.1072 36.7102 70.6478 36.8085 71.2376 36.8085Z" fill="white"/>
<path d="M84.7128 22.4562C84.7128 21.981 84.8766 21.5796 85.2043 21.2519C85.5484 20.9079 85.958 20.7358 86.4331 20.7358C86.9082 20.7358 87.3096 20.9079 87.6373 21.2519C87.9814 21.5796 88.1534 21.981 88.1534 22.4562C88.1534 22.9313 87.9814 23.3409 87.6373 23.685C87.3096 24.0126 86.9082 24.1765 86.4331 24.1765C85.958 24.1765 85.5484 24.0126 85.2043 23.685C84.8766 23.3409 84.7128 22.9313 84.7128 22.4562ZM81.223 36.5136H85.4992V27.8629H81.6654V26.0934H87.4162V36.5136H91.3975V38.2831H81.223V36.5136Z" fill="white"/>
<path d="M97.893 38.2831H95.9761V26.0934H97.893V28.1578H98.1879C98.9416 26.5522 100.252 25.7493 102.12 25.7493C103.529 25.7493 104.651 26.1917 105.487 27.0764C106.323 27.9448 106.74 29.2555 106.74 31.0086V38.2831H104.823V31.4018C104.823 30.1239 104.537 29.1654 103.963 28.5264C103.39 27.8875 102.612 27.568 101.629 27.568C100.465 27.568 99.5478 27.9694 98.876 28.7722C98.2207 29.5586 97.893 30.6154 97.893 31.9425V38.2831Z" fill="white"/>
<path d="M120.289 36.4153H119.994C119.601 37.1526 119.06 37.7097 118.372 38.0865C117.701 38.4469 116.963 38.6272 116.16 38.6272C115.341 38.6272 114.571 38.4879 113.85 38.2094C113.129 37.9308 112.49 37.5294 111.933 37.0052C111.393 36.4809 110.959 35.8337 110.631 35.0636C110.32 34.2772 110.164 33.3843 110.164 32.3849V31.9916C110.164 31.0086 110.328 30.1321 110.655 29.362C110.983 28.5756 111.417 27.9202 111.958 27.3959C112.499 26.8553 113.129 26.4457 113.85 26.1671C114.571 25.8886 115.325 25.7493 116.111 25.7493C116.996 25.7493 117.766 25.946 118.421 26.3392C119.093 26.716 119.617 27.2731 119.994 28.0103H120.289V26.0934H122.206V41.2814C122.206 41.8384 122.026 42.2972 121.665 42.6576C121.321 43.0181 120.871 43.1983 120.314 43.1983H112.376V41.4288H119.626C120.068 41.4288 120.289 41.1831 120.289 40.6916V36.4153ZM116.21 36.8085C116.783 36.8085 117.316 36.702 117.807 36.4891C118.299 36.2761 118.725 35.973 119.085 35.5797C119.462 35.1865 119.757 34.7196 119.97 34.1789C120.183 33.6219 120.289 33.0075 120.289 32.3357V32.0408C120.289 31.3854 120.183 30.7874 119.97 30.2468C119.757 29.6897 119.462 29.2146 119.085 28.8213C118.725 28.4281 118.29 28.125 117.782 27.912C117.291 27.6827 116.767 27.568 116.21 27.568C115.636 27.568 115.096 27.6745 114.588 27.8875C114.096 28.1004 113.662 28.4036 113.285 28.7968C112.925 29.19 112.638 29.6569 112.425 30.1976C112.228 30.7383 112.13 31.3363 112.13 31.9916V32.3849C112.13 33.073 112.228 33.6874 112.425 34.2281C112.638 34.7687 112.925 35.2357 113.285 35.6289C113.662 36.0057 114.096 36.3006 114.588 36.5136C115.079 36.7102 115.62 36.8085 116.21 36.8085Z" fill="white"/>
<path d="M125.728 39.4628H137.18V41.2322H125.728V39.4628Z" fill="white"/>
<path d="M141.366 35.0882V33.0238L150.901 29.829V29.534L141.366 26.3392V24.2748L151.639 27.8137V31.5493L141.366 35.0882Z" fill="white"/>
<path d="M22.653 38.2831H20.7361V26.0934H22.653V28.1578H22.9479C23.7016 26.5522 25.0123 25.7493 26.8801 25.7493C28.2891 25.7493 29.4114 26.1917 30.247 27.0764C31.0826 27.9448 31.5004 29.2555 31.5004 31.0086V38.2831H29.5834V31.4018C29.5834 30.1239 29.2967 29.1654 28.7233 28.5264C28.1498 27.8875 27.3716 27.568 26.3886 27.568C25.2253 27.568 24.3078 27.9694 23.6361 28.7722C22.9807 29.5586 22.653 30.6154 22.653 31.9425V38.2831Z" stroke="white" stroke-width="0.512364" mask="url(#path-1-outside-1_3_4879)"/>
<path d="M45.0492 36.4153H44.7543C44.3611 37.1526 43.8204 37.7097 43.1323 38.0865C42.4606 38.4469 41.7233 38.6272 40.9205 38.6272C40.1013 38.6272 39.3312 38.4879 38.6103 38.2094C37.8894 37.9308 37.2505 37.5294 36.6934 37.0052C36.1527 36.4809 35.7185 35.8337 35.3909 35.0636C35.0796 34.2772 34.9239 33.3843 34.9239 32.3849V31.9916C34.9239 31.0086 35.0878 30.1321 35.4154 29.362C35.7431 28.5756 36.1773 27.9202 36.718 27.3959C37.2586 26.8553 37.8894 26.4457 38.6103 26.1671C39.3312 25.8886 40.0849 25.7493 40.8713 25.7493C41.7561 25.7493 42.5261 25.946 43.1815 26.3392C43.8532 26.716 44.3775 27.2731 44.7543 28.0103H45.0492V26.0934H46.9662V41.2814C46.9662 41.8384 46.7859 42.2972 46.4255 42.6576C46.0814 43.0181 45.6309 43.1983 45.0738 43.1983H37.1358V41.4288H44.3857C44.8281 41.4288 45.0492 41.1831 45.0492 40.6916V36.4153ZM40.9696 36.8085C41.5431 36.8085 42.0755 36.702 42.5671 36.4891C43.0586 36.2761 43.4846 35.973 43.845 35.5797C44.2218 35.1865 44.5168 34.7196 44.7297 34.1789C44.9427 33.6219 45.0492 33.0075 45.0492 32.3357V32.0408C45.0492 31.3854 44.9427 30.7874 44.7297 30.2468C44.5168 29.6897 44.2218 29.2146 43.845 28.8213C43.4846 28.4281 43.0504 28.125 42.5425 27.912C42.051 27.6827 41.5267 27.568 40.9696 27.568C40.3962 27.568 39.8555 27.6745 39.3476 27.8875C38.8561 28.1004 38.4219 28.4036 38.0451 28.7968C37.6846 29.19 37.3979 29.6569 37.1849 30.1976C36.9883 30.7383 36.89 31.3363 36.89 31.9916V32.3849C36.89 33.073 36.9883 33.6874 37.1849 34.2281C37.3979 34.7687 37.6846 35.2357 38.0451 35.6289C38.4219 36.0057 38.8561 36.3006 39.3476 36.5136C39.8391 36.7102 40.3798 36.8085 40.9696 36.8085Z" stroke="white" stroke-width="0.512364" mask="url(#path-1-outside-1_3_4879)"/>
<path d="M62.3336 32.3357C62.3336 33.3515 62.1616 34.2526 61.8176 35.0391C61.4899 35.8091 61.0475 36.4645 60.4904 37.0052C59.9334 37.5294 59.278 37.9308 58.5244 38.2094C57.7871 38.4879 57.017 38.6272 56.2142 38.6272C55.395 38.6272 54.6168 38.4879 53.8795 38.2094C53.1422 37.9308 52.4951 37.5294 51.938 37.0052C51.3809 36.4645 50.9304 35.8091 50.5863 35.0391C50.2586 34.2526 50.0948 33.3515 50.0948 32.3357V32.0408C50.0948 31.0414 50.2586 30.1566 50.5863 29.3866C50.9304 28.6002 51.3809 27.9366 51.938 27.3959C52.5114 26.8553 53.1668 26.4457 53.9041 26.1671C54.6414 25.8886 55.4114 25.7493 56.2142 25.7493C57.017 25.7493 57.7871 25.8886 58.5244 26.1671C59.2616 26.4457 59.9088 26.8553 60.4659 27.3959C61.0393 27.9366 61.4899 28.6002 61.8176 29.3866C62.1616 30.1566 62.3336 31.0414 62.3336 32.0408V32.3357ZM56.2142 36.8085C56.804 36.8085 57.3447 36.7102 57.8362 36.5136C58.3441 36.3006 58.7865 35.9975 59.1633 35.6043C59.5402 35.2111 59.8351 34.7442 60.0481 34.2035C60.2611 33.6464 60.3676 33.0238 60.3676 32.3357V32.0408C60.3676 31.3854 60.2611 30.7874 60.0481 30.2468C59.8351 29.6897 59.5402 29.2146 59.1633 28.8213C58.7865 28.4281 58.3441 28.125 57.8362 27.912C57.3283 27.6827 56.7877 27.568 56.2142 27.568C55.6408 27.568 55.1001 27.6827 54.5922 27.912C54.0843 28.125 53.6419 28.4281 53.2651 28.8213C52.8883 29.2146 52.5934 29.6897 52.3804 30.2468C52.1674 30.7874 52.0609 31.3854 52.0609 32.0408V32.3357C52.0609 33.0238 52.1674 33.6464 52.3804 34.2035C52.5934 34.7442 52.8883 35.2111 53.2651 35.6043C53.6419 35.9975 54.0761 36.3006 54.5676 36.5136C55.0755 36.7102 55.6244 36.8085 56.2142 36.8085Z" stroke="white" stroke-width="0.512364" mask="url(#path-1-outside-1_3_4879)"/>
<path d="M75.3173 36.4153H75.0224C74.8257 36.7922 74.5718 37.1198 74.2605 37.3984C73.9656 37.6769 73.6379 37.9063 73.2775 38.0865C72.9334 38.2667 72.5648 38.3978 72.1715 38.4797C71.7783 38.578 71.4015 38.6272 71.041 38.6272C70.2218 38.6272 69.46 38.4879 68.7555 38.2094C68.051 37.9308 67.4284 37.5294 66.8877 37.0052C66.3634 36.4809 65.9456 35.8337 65.6343 35.0636C65.3394 34.2772 65.192 33.3843 65.192 32.3849V31.9916C65.192 31.0086 65.3476 30.1321 65.6589 29.362C65.9702 28.5756 66.388 27.9202 66.9123 27.3959C67.4366 26.8553 68.051 26.4457 68.7555 26.1671C69.46 25.8886 70.2055 25.7493 70.9919 25.7493C71.8275 25.7493 72.6057 25.9378 73.3266 26.3146C74.0639 26.675 74.6291 27.2403 75.0224 28.0103H75.3173V21.0799H77.2342V38.2831H75.3173V36.4153ZM71.2376 36.8085C71.8111 36.8085 72.3436 36.702 72.8351 36.4891C73.3266 36.2761 73.7526 35.973 74.113 35.5797C74.4899 35.1865 74.7848 34.7196 74.9978 34.1789C75.2108 33.6219 75.3173 33.0075 75.3173 32.3357V32.0408C75.3173 31.3854 75.2108 30.7874 74.9978 30.2468C74.7848 29.6897 74.4899 29.2146 74.113 28.8213C73.7526 28.4281 73.3184 28.125 72.8105 27.912C72.319 27.6827 71.7947 27.568 71.2376 27.568C70.6642 27.568 70.1235 27.6745 69.6156 27.8875C69.1241 28.1004 68.6899 28.4036 68.3131 28.7968C67.9527 29.19 67.6659 29.6569 67.4529 30.1976C67.2563 30.7383 67.158 31.3363 67.158 31.9916V32.3849C67.158 33.073 67.2563 33.6874 67.4529 34.2281C67.6659 34.7687 67.9527 35.2357 68.3131 35.6289C68.6899 36.0057 69.1241 36.3006 69.6156 36.5136C70.1072 36.7102 70.6478 36.8085 71.2376 36.8085Z" stroke="white" stroke-width="0.512364" mask="url(#path-1-outside-1_3_4879)"/>
<path d="M84.7128 22.4562C84.7128 21.981 84.8766 21.5796 85.2043 21.2519C85.5484 20.9079 85.958 20.7358 86.4331 20.7358C86.9082 20.7358 87.3096 20.9079 87.6373 21.2519C87.9814 21.5796 88.1534 21.981 88.1534 22.4562C88.1534 22.9313 87.9814 23.3409 87.6373 23.685C87.3096 24.0126 86.9082 24.1765 86.4331 24.1765C85.958 24.1765 85.5484 24.0126 85.2043 23.685C84.8766 23.3409 84.7128 22.9313 84.7128 22.4562ZM81.223 36.5136H85.4992V27.8629H81.6654V26.0934H87.4162V36.5136H91.3975V38.2831H81.223V36.5136Z" stroke="white" stroke-width="0.512364" mask="url(#path-1-outside-1_3_4879)"/>
<path d="M97.893 38.2831H95.9761V26.0934H97.893V28.1578H98.1879C98.9416 26.5522 100.252 25.7493 102.12 25.7493C103.529 25.7493 104.651 26.1917 105.487 27.0764C106.323 27.9448 106.74 29.2555 106.74 31.0086V38.2831H104.823V31.4018C104.823 30.1239 104.537 29.1654 103.963 28.5264C103.39 27.8875 102.612 27.568 101.629 27.568C100.465 27.568 99.5478 27.9694 98.876 28.7722C98.2207 29.5586 97.893 30.6154 97.893 31.9425V38.2831Z" stroke="white" stroke-width="0.512364" mask="url(#path-1-outside-1_3_4879)"/>
<path d="M120.289 36.4153H119.994C119.601 37.1526 119.06 37.7097 118.372 38.0865C117.701 38.4469 116.963 38.6272 116.16 38.6272C115.341 38.6272 114.571 38.4879 113.85 38.2094C113.129 37.9308 112.49 37.5294 111.933 37.0052C111.393 36.4809 110.959 35.8337 110.631 35.0636C110.32 34.2772 110.164 33.3843 110.164 32.3849V31.9916C110.164 31.0086 110.328 30.1321 110.655 29.362C110.983 28.5756 111.417 27.9202 111.958 27.3959C112.499 26.8553 113.129 26.4457 113.85 26.1671C114.571 25.8886 115.325 25.7493 116.111 25.7493C116.996 25.7493 117.766 25.946 118.421 26.3392C119.093 26.716 119.617 27.2731 119.994 28.0103H120.289V26.0934H122.206V41.2814C122.206 41.8384 122.026 42.2972 121.665 42.6576C121.321 43.0181 120.871 43.1983 120.314 43.1983H112.376V41.4288H119.626C120.068 41.4288 120.289 41.1831 120.289 40.6916V36.4153ZM116.21 36.8085C116.783 36.8085 117.316 36.702 117.807 36.4891C118.299 36.2761 118.725 35.973 119.085 35.5797C119.462 35.1865 119.757 34.7196 119.97 34.1789C120.183 33.6219 120.289 33.0075 120.289 32.3357V32.0408C120.289 31.3854 120.183 30.7874 119.97 30.2468C119.757 29.6897 119.462 29.2146 119.085 28.8213C118.725 28.4281 118.29 28.125 117.782 27.912C117.291 27.6827 116.767 27.568 116.21 27.568C115.636 27.568 115.096 27.6745 114.588 27.8875C114.096 28.1004 113.662 28.4036 113.285 28.7968C112.925 29.19 112.638 29.6569 112.425 30.1976C112.228 30.7383 112.13 31.3363 112.13 31.9916V32.3849C112.13 33.073 112.228 33.6874 112.425 34.2281C112.638 34.7687 112.925 35.2357 113.285 35.6289C113.662 36.0057 114.096 36.3006 114.588 36.5136C115.079 36.7102 115.62 36.8085 116.21 36.8085Z" stroke="white" stroke-width="0.512364" mask="url(#path-1-outside-1_3_4879)"/>
<path d="M125.728 39.4628H137.18V41.2322H125.728V39.4628Z" stroke="white" stroke-width="0.512364" mask="url(#path-1-outside-1_3_4879)"/>
<path d="M141.366 35.0882V33.0238L150.901 29.829V29.534L141.366 26.3392V24.2748L151.639 27.8137V31.5493L141.366 35.0882Z" stroke="white" stroke-width="0.512364" mask="url(#path-1-outside-1_3_4879)"/>
</svg>
